# xmcd
#
# Track frame offsets: 
#        150
#        35445
#        70101
#        103038
#        140530
#        171015
#        208974
#        242020
#        276104
#
# Disc length: 4187 seconds
#
# Revision: 0
# Processed by: cddbd v1.5.2PL0 Copyright (c) Steve Scherf et al.
# Submitted via: ExactAudioCopy v0.95b4
#
DISCID=82105909
DTITLE=Various Artist - Rhythms of Peace Compilation
DYEAR=2006
DGENRE=Psychedelic
TTITLE0=Vibrasphere - Desert Plain
TTITLE1=Tegma - Zalta
TTITLE2=Chromosome - Lost in Translation (Andromeda Remix)
TTITLE3=Neuromotor - My Ancestors
TTITLE4=Fatali - Dreams
TTITLE5=Genetic Syndrom - Gnawa Peace
TTITLE6=Chemical Drive - Mountain High
TTITLE7=Painkiller and Mekkanikka - Sand Storm
TTITLE8=Bliss - Transatlantic Moonshine
EXTD=
EXTT0=
EXTT1=
EXTT2=
EXTT3=
EXTT4=
EXTT5=
EXTT6=
EXTT7=
EXTT8=
PLAYORDER=
